Coordinates
version=1
nRows=7
nColumns=53
inDegrees=yes

Units are S.I. units (second, meters, Newtons, ...)
If the header above contains a line with 'inDegrees', this indicates whether rotational values are in degrees (yes) or radians (no).

endheader
time	pelvis_tilt	pelvis_list	pelvis_rot	pelvis_tx	pelvis_ty	pelvis_tz	hip_flex_r	hip_add_r	hip_rot_r	pf_flex_r	pf_rot_r	pf_tilt_r	pf_tx_r	pf_ty_r	pf_tz_r	knee_flex_r	knee_add_r	knee_rot_r	knee_tx_r	knee_ty_r	knee_tz_r	ankle_flex_r	subt_angle_r	mtp_angle_r	hip_flex_l	hip_add_l	hip_rot_l	pf_l_r3	pf_l_tx	pf_l_ty	knee_flex_l	ankle_flex_l	subt_angle_l	mtp_angle_l	lumbar_ext	lumbar_latbend	lumbar_rot	neck_ext	neck_latbend	neck_rot	arm_add_r	arm_flex_r	arm_rot_r	elbow_flex_r	pro_sup_r	wrist_flex_r	arm_add_l	arm_flex_l	arm_rot_l	elbow_flex_l	pro_sup_l	wrist_flex_l
      0.00000000	     -2.72529265	      4.86464430	     -4.45758780	     -0.55017355	      0.93993586	      0.14109981	     32.49759931	     -3.06562734	     -2.93139944	      8.46871829	     -0.39963693	     -5.90960550	      0.05079650	      0.00264355	      0.00548756	     10.56345650	     -0.25479783	      1.86941912	      0.00446730	      0.00230176	     -0.00087019	      4.92930096	     12.68156741	      0.00000000	    -10.36809544	     -9.38199954	     -3.27861409	      0.06513700	      0.04435000	     -0.41871200	      0.13871336	      0.22364791	     -0.16955998	      0.00000000	    -20.11227100	     -5.09574237	     -0.32312011	     13.15463081	      0.00000000	      0.00000000	    -12.03826925	      0.00000000	      0.00000000	     79.98594156	     45.13257943	      0.00000000	    -12.03826925	      0.00000000	      0.00000000	     79.98594156	     45.13257943	      0.00000000
      0.00833333	     -2.25271581	      5.05924706	     -4.16935974	     -0.54183611	      0.93783983	      0.14128232	     32.35765826	     -3.41690320	     -2.76901836	      8.66579317	     -0.52804246	     -5.93557005	      0.05044259	      0.00152643	      0.00543050	     11.94758516	     -0.26018495	      1.75006037	      0.00451668	      0.00227512	     -0.00095701	      4.93612428	     11.80868170	      0.00000000	    -11.30351323	     -9.56930712	     -3.66049628	      0.06513700	      0.04435000	     -0.41871200	      0.14434873	      0.23238866	     -0.16926192	      0.00000000	    -20.66976181	     -5.01880109	     -0.64260512	     13.02417230	      0.00000000	      0.00000000	    -12.10502743	      0.00000000	      0.00000000	     79.98646346	     45.11895641	      0.00000000	    -12.10502743	      0.00000000	      0.00000000	     79.98646346	     45.11895641	      0.00000000
      0.01666667	     -1.80463419	      5.24992072	     -3.91498727	     -0.53343760	      0.93574604	      0.14159993	     32.19029186	     -3.73456845	     -2.42168338	      8.85917316	     -0.65311835	     -5.94679409	      0.05009060	      0.00049019	      0.00538407	     13.22529450	     -0.26963099	      1.62587410	      0.00452449	      0.00225316	     -0.00103155	      4.87070981	     10.93356164	      0.00000000	    -12.17957001	     -9.72890791	     -3.89686941	      0.06513700	      0.04435000	     -0.41871200	      0.15116047	      0.24108862	     -0.16612641	      0.00000000	    -21.18123160	     -4.94053214	     -0.88238467	     12.91523716	      0.00000000	      0.00000000	    -12.16318192	      0.00000000	      0.00000000	     79.98691052	     45.10807922	      0.00000000	    -12.16318192	      0.00000000	      0.00000000	     79.98691052	     45.10807922	      0.00000000
      0.02500000	     -1.46914919	      5.37304033	     -3.64096022	     -0.52500265	      0.93356717	      0.14188853	     32.10208819	     -3.96182517	     -1.79638531	      9.05824966	     -0.77489710	     -5.94225534	      0.04973818	     -0.00049197	      0.00534932	     14.43211639	     -0.28160500	      1.49947522	      0.00449645	      0.00224003	     -0.00109474	      4.47723377	      9.82797968	      0.00000000	    -12.90523556	     -9.80253123	     -4.28097994	      0.06513700	      0.04435000	     -0.41871200	      0.15901060	      0.24853938	     -0.16725070	      0.00000000	    -21.55729058	     -4.76559979	     -1.05292237	     12.76665150	      0.00000000	      0.00000000	    -12.24897037	      0.00000000	      0.00000000	     79.98755204	     45.09463042	      0.00000000	    -12.24897037	      0.00000000	      0.00000000	     79.98755204	     45.09463042	      0.00000000
      0.03333333	     -1.21749684	      5.50954883	     -3.46739669	     -0.51648660	      0.93126513	      0.14244872	     32.14132445	     -4.11751641	     -0.88752295	      9.28837297	     -0.90100779	     -5.91213492	      0.04935918	     -0.00150902	      0.00533309	     15.67825824	     -0.29592909	      1.36186221	      0.00443214	      0.00223801	     -0.00114807	      3.83503791	      8.41522681	      0.00000000	    -13.52241421	     -9.88030392	     -4.45885236	      0.06513700	      0.04435000	     -0.41871200	      0.16723274	      0.25612532	     -0.16573049	      0.00000000	    -21.80951592	     -4.63808805	     -1.07956796	     12.68026711	      0.00000000	      0.00000000	    -12.30077894	      0.00000000	      0.00000000	     79.98793197	     45.08694561	      0.00000000	    -12.30077894	      0.00000000	      0.00000000	     79.98793197	     45.08694561	      0.00000000
      0.04166667	     -0.98958730	      5.62474856	     -3.27169354	     -0.50788860	      0.92905930	      0.14306421	     32.25589329	     -4.23359045	      0.14908159	      9.58496536	     -1.03778414	     -5.83384857	      0.04892402	     -0.00264958	      0.00535302	     17.07275650	     -0.31280416	      1.20083021	      0.00432265	      0.00225148	     -0.00118793	      3.28751187	      6.87037816	      0.00000000	    -14.09632754	     -9.92027102	     -4.64328275	      0.06513700	      0.04435000	     -0.41871200	      0.17632541	      0.26279529	     -0.16532700	      0.00000000	    -22.03345916	     -4.48283538	     -1.08456673	     12.58946100	      0.00000000	      0.00000000	    -12.35712820	      0.00000000	      0.00000000	     79.98833976	     45.07915927	      0.00000000	    -12.35712820	      0.00000000	      0.00000000	     79.98833976	     45.07915927	      0.00000000
      0.05000000	     -0.69399649	      5.68679398	     -3.06623209	     -0.49917960	      0.92715043	      0.14373472	     32.33667485	     -4.28043189	      1.06283217	      9.97278286	     -1.17935206	     -5.68580106	      0.04842878	     -0.00391881	      0.00542633	     18.62639405	     -0.33096488	      1.01439275	      0.00416848	      0.00228386	     -0.00120746	      3.13127327	      5.46301388	      0.00000000	    -14.72465868	     -9.89175979	     -4.72105490	      0.06513700	      0.04435000	     -0.41871200	      0.18616285	      0.26824271	     -0.16440500	      0.00000000	    -22.33732283	     -4.26706668	     -1.09198307	     12.48219440	      0.00000000	      0.00000000	    -12.42672202	      0.00000000	      0.00000000	     79.98883588	     45.07048364	      0.00000000	    -12.42672202	      0.00000000	      0.00000000	     79.98883588	     45.07048364	      0.00000000
